<svg width="202" height="30" viewBox="0 0 202 30" fill="none" xmlns="http://www.w3.org/2000/svg">
<path d="M22.5 0H7.5C3.35786 0 0 3.35786 0 7.5V22.5C0 26.6421 3.35786 30 7.5 30H22.5C26.6421 30 30 26.6421 30 22.5V7.5C30 3.35786 26.6421 0 22.5 0Z" fill="#7C3AED"/>
<path d="M22.5 0H7.5C3.35786 0 0 3.35786 0 7.5V22.5C0 26.6421 3.35786 30 7.5 30H22.5C26.6421 30 30 26.6421 30 22.5V7.5C30 3.35786 26.6421 0 22.5 0Z" fill="#7C3AED"/>
<path d="M14.8644 5.6748L7.29688 18.7289H14.8644L12.9726 24.3235L24.3239 11.2694H16.7563L18.6482 5.6748H14.8644Z" fill="white"/>
<path d="M199.439 25.1353H196.462L198.126 15.6488C198.184 15.2985 198.213 14.9482 198.213 14.6271C198.213 13.2553 197.629 12.292 196.17 12.292C194.331 12.292 192.755 13.7515 192.317 16.4077L190.799 25.1353H187.822L189.486 15.6488C189.544 15.2693 189.573 14.8898 189.573 14.6271C189.573 13.2553 188.989 12.292 187.559 12.292C185.72 12.292 184.173 13.7515 183.735 16.4077L182.218 25.1353H179.24L181.867 10.0736H184.815L184.407 12.3796C185.312 10.8325 186.888 9.78174 188.61 9.78174C190.974 9.78174 192.2 10.9201 192.58 12.6131C193.631 10.8034 195.236 9.78174 197.221 9.78174C199.731 9.78174 201.307 11.3288 201.307 13.8974C201.307 14.3061 201.278 14.7147 201.191 15.1817L199.439 25.1353Z" fill="white"/>
<path d="M168.938 25.4272C166.019 25.4272 164.238 23.997 164.238 21.3116C164.238 20.9029 164.267 20.4651 164.355 20.0272L166.106 10.0737H169.2L167.537 19.4726C167.478 19.8521 167.449 20.1732 167.449 20.4943C167.478 22.0705 168.354 22.917 169.989 22.917C172.119 22.917 173.9 21.3699 174.396 18.5678L175.856 10.0737H178.95L176.323 25.1354H173.375L173.783 22.8294C172.645 24.4932 170.923 25.4272 168.938 25.4272Z" fill="white"/>
<path d="M160.558 25.1345H157.464L160.091 10.0729H163.185L160.558 25.1345ZM162.193 7.44584C161.142 7.44584 160.529 6.83287 160.529 6.04476C160.529 4.96476 161.258 4.14746 162.63 4.14746C163.681 4.14746 164.294 4.76043 164.294 5.54854C164.294 6.65773 163.535 7.44584 162.193 7.44584Z" fill="white"/>
<path d="M154.541 25.1353H151.446L153.081 15.7363C153.139 15.3861 153.169 15.0358 153.169 14.7439C153.169 13.1385 152.293 12.292 150.658 12.292C148.498 12.292 146.747 13.839 146.251 16.6704L144.791 25.1353H141.697L144.324 10.0736H147.272L146.864 12.3796C148.002 10.7158 149.724 9.78174 151.709 9.78174C154.628 9.78174 156.409 11.212 156.409 13.9266C156.409 14.3061 156.35 14.7439 156.292 15.1817L154.541 25.1353Z" fill="white"/>
<path d="M132.513 25.4271C128.368 25.4271 126.033 23.0044 126.033 19.239C126.033 13.839 129.156 9.78174 134.498 9.78174C138.818 9.78174 140.803 12.7882 140.803 15.9698C140.803 16.8455 140.657 17.6336 140.511 18.1882H129.127C129.069 18.6261 129.04 19.0055 129.04 19.385C129.04 21.9536 130.412 23.2963 132.688 23.2963C134.761 23.2963 136.308 22.2163 137.096 20.465H139.927C138.964 23.5007 136.512 25.4271 132.513 25.4271ZM134.323 11.9125C131.988 11.9125 130.12 13.3136 129.448 16.145H137.796V15.7071C137.796 13.372 136.512 11.9125 134.323 11.9125Z" fill="white"/>
<path d="M113.275 25.4265C107.788 25.4265 104.811 22.0406 104.811 17.0784C104.811 9.63519 109.101 4.06006 116.545 4.06006C121.915 4.06006 124.893 7.09574 124.893 10.5109C124.893 10.7736 124.864 11.0363 124.834 11.299H121.945C121.799 8.73033 119.901 6.71628 116.34 6.71628C110.882 6.71628 108.051 11.3865 108.051 16.8449C108.051 20.5228 110.181 22.7703 113.772 22.7703C118.062 22.7703 120.018 20.2601 120.894 16.3195H115.348L115.727 14.072H124.513L122.587 25.1347H120.164L120.573 21.3401C119.172 23.9379 117.216 25.4265 113.275 25.4265Z" fill="white"/>
<path d="M93.8095 25.4271C89.7522 25.4271 87.1836 22.5374 87.1836 17.6044C87.1836 12.6715 89.7522 9.78173 93.8095 9.78173C96.0863 9.78173 97.6041 10.7158 98.4506 12.3504V4.35254H102.216V25.1352H98.6258V22.5666C97.8085 24.3179 96.3198 25.4271 93.8095 25.4271ZM94.6852 22.5666C96.9328 22.5666 98.4506 21.0488 98.4506 17.6044C98.4506 14.1601 96.9328 12.6423 94.6852 12.6423C92.4668 12.6423 90.949 14.1601 90.949 17.6044C90.949 21.0488 92.4668 22.5666 94.6852 22.5666Z" fill="white"/>
<path d="M76.5083 25.4271C72.9764 25.4271 71.0791 23.6466 71.0791 20.8736C71.0791 18.5677 72.451 16.7288 76.2456 16.4369L79.3105 16.1742C80.8283 16.0282 81.2661 15.6196 81.2661 14.8315C81.2661 13.3428 80.3613 12.4671 78.4932 12.4671C76.7418 12.4671 75.7786 13.2261 75.6326 14.8315H71.8964C71.8964 11.7666 73.8229 9.78174 78.464 9.78174C83.105 9.78174 85.0315 11.7666 85.0315 14.8315V21.2823C85.0315 23.3255 85.2067 24.639 85.4986 25.1353H82.0834C81.6456 24.5807 81.4413 23.9677 81.4413 22.8001C80.5948 24.5223 79.0769 25.4271 76.5083 25.4271ZM77.6175 22.8585C79.9526 22.8585 81.2661 21.078 81.2661 18.8888V17.838C81.0034 18.159 80.3029 18.3342 79.2813 18.4217L77.5007 18.5677C75.6034 18.7428 74.8445 19.5309 74.8445 20.6109C74.8445 21.9536 75.691 22.8585 77.6175 22.8585Z" fill="white"/>
<path d="M62.1642 25.4271C57.2604 25.4271 54.5166 22.3623 54.5166 17.6044C54.5166 12.9634 57.1436 9.78174 61.989 9.78174C66.8636 9.78174 69.4907 12.9925 69.4907 17.4293C69.4907 17.7504 69.4615 18.0423 69.4323 18.3925H58.282C58.3988 21.4574 59.8582 22.8585 62.1642 22.8585C64.0323 22.8585 65.2582 21.9244 65.6961 20.3774H69.1696C68.5274 23.4715 66.2215 25.4271 62.1642 25.4271ZM61.989 12.3504C59.9166 12.3504 58.6031 13.5471 58.282 15.9407H65.7253C65.4042 13.5471 64.0615 12.3504 61.989 12.3504Z" fill="white"/>
<path d="M53.6391 25.1352H39.7158V4.35254H43.6856V21.8952H53.6391V25.1352Z" fill="white"/>
</svg>
